# xmcd
# 
# Track frame offsets:
#     150
#     15365
#     28775
#     44453
#     65810
#     80055
#     93875
#     115323
#     127305
#     151230
#     165690
#     177125
#     194153
#     210400
#     223418
#     237093
# 
# Disc length: 3382
# 
# Revision: 3
# Processed by: cddbd v1.5.2PL0 Copyright (c) Steve Scherf et al.
# Submitted via: BonkEnc v1.0.8
# 
DISCID=e70d3410
DTITLE=Various Artist - Galpão Gaúcho
DYEAR=0
DGENRE=Gaúcha
TTITLE0=Os Farrapos - Feijão com Arroz
TTITLE1=Grupo Quero-Quero - Cantando por aí
TTITLE2=Os Mateadores - Bolicheiro de Vila
TTITLE3=Francisco Vargas - Dando a mão pra mulherada
TTITLE4=Os Bertussi - Na Forma
TTITLE5=João Kadella e Grupo Kanil - Passei o ferro na Véia
TTITLE6=Os Nativos - Retrato do joão Cuiudo
TTITLE7=Mano Lima - Saco de Gato
TTITLE8=Leonardo - Aos Desgarados do Pago
TTITLE9=Os Mirins - Vaneirinha da Paixão
TTITLE10=Invernada de Guapos - Sacudindo a Bombacha
TTITLE11=Os Maragatos - Chamarisco de Fandango
TTITLE12=Os Fronteiriços - Os Zóio da Véia
TTITLE13=Garotos do Fandango - Enchendo de Gaita
TTITLE14=Grupo Bailanta - Do Pampa ao Pantanal
TTITLE15=Os Quatro Ventos - Cheiro de Galpãp
EXTD=
EXTT0=
EXTT1=
EXTT2=
EXTT3=
EXTT4=
EXTT5=
EXTT6=
EXTT7=
EXTT8=
EXTT9=
EXTT10=
EXTT11=
EXTT12=
EXTT13=
EXTT14=
EXTT15=
PLAYORDER=
